PathFileType	4	(X/Y/Z)	23_1_44_p0_0-284_filt_butterworth.trc
DataRate	CameraRate	NumFrames	NumMarkers	Units	OrigDataRate	OrigDataStartFrame	OrigNumFrames
56.0	56.0	4	27	m	56.0	71	284
Frame#	Time	RHip			RKnee			RAnkle			RBigToe			RSmallToe			RHeel			LHip			LKnee			LAnkle			LBigToe			LSmallToe			LHeel			Neck			Head			Nose			RShoulder			RElbow			RWrist			RThumb			RIndex			RPinky			LShoulder			LElbow			LWrist			LThumb			LIndex			LPinky			
		X1	Y1	Z1	X2	Y2	Z2	X3	Y3	Z3	X4	Y4	Z4	X5	Y5	Z5	X6	Y6	Z6	X7	Y7	Z7	X8	Y8	Z8	X9	Y9	Z9	X10	Y10	Z10	X11	Y11	Z11	X12	Y12	Z12	X13	Y13	Z13	X14	Y14	Z14	X15	Y15	Z15	X16	Y16	Z16	X17	Y17	Z17	X18	Y18	Z18	X19	Y19	Z19	X20	Y20	Z20	X21	Y21	Z21	X22	Y22	Z22	X23	Y23	Z23	X24	Y24	Z24	X25	Y25	Z25	X26	Y26	Z26	X27	Y27	Z27	
71	1.2678571428571428	0.168033349161516	0.5106218665619386	0.9497125347599662	0.1811545442925512	0.5301373033874823	1.3864933813199647	0.15768790462704693	0.5024163763741146	1.7744807109773704	0.1331096699921283	0.3722713728623988	1.7886987687015266	0.19287411486977124	0.3822007687222002	1.7895399495735886	0.15839530776860958	0.6004269307813188	1.850245237085699	-0.015531527141963025	0.529646891243417	0.9446723632301383	-0.03438433720913485	0.5443383624708633	1.3559296550675337	-0.029536962562884832	0.5784834753224103	1.801490718875801	-0.015739872890177368	0.4153479811584144	1.8040872530323817	-0.07260624953712852	0.45870618780615985	1.8145579425867533	-0.021922200259840093	0.6156623867091837	1.840795529639102	0.07256083582689093	0.4175051028880786	0.39874016407722607	0.054729378640969537	0.3666803485220418	0.15646504901498684	0.031459296561653666	0.31684093280456765	0.2729866456214885	0.19570121736672585	0.39185865463665925	0.4722986217499182	0.1789764148104321	0.26698260223247955	0.6816628632071831	0.06894380673265306	0.08082647527848519	0.5940190923906061	0.02172443277066216	0.032940450649899325	0.589468247472827	-0.010404484456095087	-0.024116220179335457	0.5855699628573676	-0.004631896332733691	-0.01209552958800033	0.6077068406785086	-0.07407498604745974	0.4528573148346552	0.480049820531127	-0.10145254936651896	0.319243838099235	0.6605647465975233	-0.05559560699758899	0.11245163647269667	0.5899760276581159	-0.010412803086171856	0.030071004550076448	0.5798344342071616	-0.010920614729365485	-0.0026701923430911103	0.5844697688974722	-0.01966835919709145	0.008093683956443467	0.604514256920485
72	1.2857142857142858	0.168767860814035	0.5149640264010132	0.9495586453075564	0.18096392407982295	0.529910377876512	1.3856923426758487	0.1578019494501839	0.5038381118237071	1.7771370225521368	0.13430606042165186	0.3718418422555232	1.7892996341149123	0.1927862698162044	0.38273607439116675	1.7885772663233357	0.15894021010348292	0.600416628130018	1.8504396845680868	-0.015475994161209462	0.5291881379153438	0.9447235544728028	-0.03523051275200606	0.548045090485572	1.357775857000454	-0.029556597014779973	0.5785017269392827	1.8015376334131812	-0.014741515461597467	0.4173146120950653	1.8055615858928828	-0.07269310852895579	0.45892793746086247	1.8146168916341994	-0.022338122974070593	0.6153789501587109	1.838821430800339	0.07443667142796605	0.4143168363553449	0.39889636859568883	0.05589690831535568	0.3694103477298845	0.1565232446695365	0.03176440089768984	0.31683989103855115	0.27410732153789574	0.19561292779186584	0.39163862886757284	0.47425089676404786	0.17515865733802075	0.26979645002906594	0.6767141158477549	0.06260837354233202	0.06592069894100129	0.5901641169094863	0.01567488256495213	-0.0005268377680396541	0.5812302665955767	-0.01426891306165864	-0.04739767104742427	0.5762036786661202	-0.012259608155583395	-0.03382239793066119	0.5996482810563415	-0.07426072540368833	0.44468346661093533	0.4787474996212465	-0.10669252625505349	0.30356393631442236	0.6525684560876128	-0.0554054664775592	0.08379505595247276	0.580983100721069	-0.00393794303655374	0.008959982734835444	0.5761288995920929	-0.007271571149520382	-0.030419797349032166	0.575279164640172	-0.023606679399775257	-0.022870083512052948	0.5957269216428913
73	1.3035714285714286	0.16899779824196143	0.5178349602282806	0.9494765297046392	0.18042127964406696	0.5297075978807992	1.3857554352649892	0.15899988737390616	0.5076497843244713	1.7798831034265281	0.13637383113480225	0.37649396980769273	1.792279479392898	0.1928283721064465	0.38338776647575384	1.788490147403681	0.15900822390675412	0.6000197669396861	1.8505941143126172	-0.015455829365476454	0.5288547762920339	0.9450309171227133	-0.036363625708747606	0.553032507662023	1.3600590337319278	-0.029572882900156257	0.5785009036848646	1.8015641353422214	-0.013291569302030435	0.4209283977668205	1.8083059983361165	-0.07270665434709597	0.45868841928812054	1.8146505603472542	-0.022659431375579065	0.6148884017616633	1.8373154743589675	0.07522850157194198	0.4133825446250108	0.39985348168203294	0.05788858794425583	0.3733452381578273	0.15658585773764513	0.03268928041980838	0.316820844355366	0.274961195301567	0.19553966603832348	0.39144515949123726	0.47569242200205764	0.1739929927934238	0.2639342122954748	0.6697577802804461	0.05843536415687125	0.050515492093634484	0.5867113404302949	0.01004870659970264	-0.04144495948594005	0.5684328881363293	-0.020334727246136566	-0.08324027235329386	0.5603360050854431	-0.022773726509146948	-0.05457792925942795	0.5896112161424266	-0.07462125022975219	0.43603885029346373	0.4767937948147647	-0.11315202951465812	0.28705532807947487	0.6440144744569505	-0.05511816504586902	0.058761791610022034	0.5718759955652853	0.003770930247485345	-0.0032607086291268884	0.5714776798453032	-0.008647465066316726	-0.06246236772117675	0.5633534416976196	-0.032416895814131375	-0.05742474644266047	0.5829254386698022
74	1.3214285714285714	0.16905212395262337	0.5186469160243954	0.9495238602364547	0.17981100792821422	0.5293688386887048	1.3858613048490258	0.16094849815477916	0.512697494816962	1.7811284352331087	0.13857189663480962	0.3856599553977865	1.7960768231119706	0.19345289870275445	0.38513830875585353	1.7895131484795657	0.15852280118559978	0.599750247802077	1.8505276030647706	-0.015777075885579903	0.5289468158629711	0.9451690494180469	-0.03709892205381976	0.5569779912673274	1.3617783214415518	-0.029579642973303698	0.5785004161014423	1.8015662508458212	-0.01136435085973978	0.42539604324485275	1.8122984888918807	-0.0726997025121459	0.4584681837732871	1.8146425137620619	-0.02274188456578315	0.6141691999232091	1.8366297201946067	0.07538598507363059	0.41377808967985635	0.40128599543847787	0.05971747026110492	0.3764076371206462	0.1566532795263935	0.034001740103811295	0.3168363410748544	0.2752773508542504	0.19550824847050258	0.3913198569276105	0.47633668467180623	0.1742673832323589	0.24590522216909752	0.6569328791339134	0.056814789958993715	0.030594909362894385	0.5811853680569322	0.00788364536234807	-0.07838665438752432	0.554616038905139	-0.026957786748189976	-0.12331176939696775	0.5425722338996974	-0.03127181252155613	-0.07944293672030371	0.578014256145754	-0.07497412013038028	0.43046867667537275	0.4747292675101598	-0.11925396359733678	0.2678247455655276	0.6320336434145357	-0.05646102494281444	0.03480895896442176	0.5619133786761432	0.008596859914684693	-0.012886608923349068	0.5657043345603262	-0.014484144294499712	-0.10153512037194816	0.5494838040192357	-0.045494920693309224	-0.09517086850309675	0.5665698600123366
